<svg width="30px" height="30px" stroke-width="1" viewBox="0 0 24 24" fill="none" xmlns="http://www.w3.org/2000/svg">
    <g clip-path="url(#clip0_201_1171)">
    <path
        d="M4.66727 24H19.3305C21.9043 24 24 21.9065 24 19.3305V4.66946C24 2.09351 21.9065 0 19.3305 0H4.66727C2.09351 0 -0.00218201 2.09351 -0.00218201 4.66946V19.3327C-0.00218201 21.9065 2.09132 24.0022 4.66727 24.0022V24ZM19.3305 2.05203C20.7735 2.05203 21.948 3.22649 21.948 4.66946V19.3327C21.948 20.7757 20.7735 21.9502 19.3305 21.9502H4.66727C3.2243 21.9502 2.04984 20.7757 2.04984 19.3327V4.66946C2.04984 3.22649 3.2243 2.05203 4.66727 2.05203H19.3305Z"
        fill="#C30000" />
    <path
        d="M13.9302 18.6211H16.1001C17.5038 18.6211 18.6455 17.4793 18.6455 16.0757V7.92649C18.6455 6.52282 17.5038 5.3811 16.1001 5.3811H13.9302C13.3648 5.3811 12.9042 5.83954 12.9042 6.40712C12.9042 6.9747 13.3626 7.43313 13.9302 7.43313H16.1001C16.373 7.43313 16.5935 7.6558 16.5935 7.92867V16.08C16.5935 16.3529 16.373 16.5734 16.1001 16.5734H13.9302C13.3648 16.5734 12.9042 17.0318 12.9042 17.5994C12.9042 18.167 13.3626 18.6254 13.9302 18.6254V18.6211Z"
        fill="#C30000" />
    <path
        d="M5.59136 12.6483C5.57389 12.6286 5.55643 12.609 5.54115 12.5872C5.51495 12.5479 5.49312 12.5064 5.47129 12.4649C5.46256 12.4453 5.44946 12.4278 5.44073 12.4082C5.4189 12.3579 5.40362 12.3056 5.39052 12.251C5.38616 12.2379 5.38179 12.2248 5.37743 12.2117C5.36214 12.144 5.35559 12.072 5.35559 11.9999C5.35559 11.9279 5.36433 11.8559 5.37743 11.7882C5.37961 11.7751 5.38616 11.762 5.39052 11.7489C5.40362 11.6943 5.4189 11.6419 5.44291 11.5917C5.45165 11.5721 5.46256 11.5546 5.47348 11.535C5.49531 11.4935 5.51714 11.452 5.54333 11.4127C5.55861 11.3909 5.57608 11.3734 5.59354 11.3538C5.62192 11.321 5.64812 11.2883 5.67868 11.2577C5.68523 11.2512 5.68959 11.2446 5.69396 11.2402L8.92481 8.32375C9.34614 7.9439 9.99449 7.97665 10.3743 8.39797C10.7542 8.81929 10.7214 9.46764 10.3001 9.84749L9.04925 10.9761H13.6947C14.2601 10.9761 14.7207 11.4345 14.7207 12.0021C14.7207 12.5697 14.2623 13.0281 13.6947 13.0281H9.04925L10.3001 14.1567C10.7214 14.5366 10.7542 15.1849 10.3743 15.6063C10.1713 15.8311 9.89189 15.9446 9.61246 15.9446C9.36796 15.9446 9.12129 15.8573 8.92481 15.6805L5.69396 12.764C5.69396 12.764 5.68305 12.7509 5.6765 12.7465C5.64593 12.7181 5.61755 12.6854 5.59136 12.6505V12.6483Z"
        fill="#C30000" />
    </g>
    <defs>
    <clipPath id="clip0_201_1171">
        <rect width="24" height="24" fill="white" transform="matrix(-1 0 0 1 24 0)" />
    </clipPath>
    </defs>
</svg>